HIERARCHY
ROOT Hips
{
	OFFSET -0.001795 -0.223333 0.028219
	CHANNELS 6 Xposition Yposition Zposition Zrotation Yrotation Xrotation 
	JOINT LeftUpLeg
	{
		OFFSET 0.069520 -0.091406 -0.006815
		CHANNELS 3 Zrotation Yrotation Xrotation
		JOINT LeftLeg
		{
			OFFSET 0.034277 -0.375199 -0.004496
			CHANNELS 3 Zrotation Yrotation Xrotation
			JOINT LeftFoot
			{
				OFFSET -0.013596 -0.397961 -0.043693
				CHANNELS 3 Zrotation Yrotation Xrotation
				JOINT LeftToe
				{
					OFFSET 0.026358 -0.055791 0.119288
					CHANNELS 3 Zrotation Yrotation Xrotation
					End Site
					{
						OFFSET 0.000000 0.000000 0.000000
					}
				}
			}
		}
	}
	JOINT RightUpLeg
	{
		OFFSET -0.067670 -0.090522 -0.004320
		CHANNELS 3 Zrotation Yrotation Xrotation
		JOINT RightLeg
		{
			OFFSET -0.038290 -0.382569 -0.008850
			CHANNELS 3 Zrotation Yrotation Xrotation
			JOINT RightFoot
			{
				OFFSET 0.015774 -0.398415 -0.042312
				CHANNELS 3 Zrotation Yrotation Xrotation
				JOINT RightToe
				{
					OFFSET -0.025372 -0.048144 0.123348
					CHANNELS 3 Zrotation Yrotation Xrotation
					End Site
					{
						OFFSET 0.000000 0.000000 0.000000
					}
				}
			}
		}
	}
	JOINT Spine
	{
		OFFSET -0.002533 0.108963 -0.026696
		CHANNELS 3 Zrotation Yrotation Xrotation
		JOINT Spine1
		{
			OFFSET 0.005487 0.135180 0.001092
			CHANNELS 3 Zrotation Yrotation Xrotation
			JOINT Spine2
			{
				OFFSET 0.001457 0.052922 0.025425
				CHANNELS 3 Zrotation Yrotation Xrotation
				JOINT Neck
				{
					OFFSET -0.002778 0.213870 -0.042857
					CHANNELS 3 Zrotation Yrotation Xrotation
					JOINT Head
					{
						OFFSET 0.005152 0.064970 0.051349
						CHANNELS 3 Zrotation Yrotation Xrotation
						End Site
						{
							OFFSET 0.000000 0.000000 0.000000
						}
					}
				}
				JOINT LeftShoulder
				{
					OFFSET 0.078845 0.121749 -0.034090
					CHANNELS 3 Zrotation Yrotation Xrotation
					JOINT LeftArm
					{
						OFFSET 0.090977 0.030469 -0.008868
						CHANNELS 3 Zrotation Yrotation Xrotation
						JOINT LeftForeArm
						{
							OFFSET 0.259612 -0.012772 -0.027456
							CHANNELS 3 Zrotation Yrotation Xrotation
							JOINT LeftHand
							{
								OFFSET 0.249234 0.008986 -0.001171
								CHANNELS 3 Zrotation Yrotation Xrotation
								End Site
								{
									OFFSET 0.000000 0.000000 0.000000
								}
							}
						}
					}
				}
				JOINT RightShoulder
				{
					OFFSET -0.081759 0.118833 -0.038615
					CHANNELS 3 Zrotation Yrotation Xrotation
					JOINT RightArm
					{
						OFFSET -0.096012 0.032551 -0.009143
						CHANNELS 3 Zrotation Yrotation Xrotation
						JOINT RightForeArm
						{
							OFFSET -0.253742 -0.013329 -0.021401
							CHANNELS 3 Zrotation Yrotation Xrotation
							JOINT RightHand
							{
								OFFSET -0.255298 0.007772 -0.005559
								CHANNELS 3 Zrotation Yrotation Xrotation
								End Site
								{
									OFFSET 0.000000 0.000000 0.000000
								}
							}
						}
					}
				}
			}
		}
	}
}
MOTION
Frames: 5
Frame Time: 0.050000
0.000000 0.858931 0.000000 -0.815482 14.842458 47.204088 17.204155 -1.964392 -67.156959 -13.011604 2.127215 13.913481 8.558037 23.370783 4.707900 0.000000 0.000000 0.000000 -14.823103 -8.168502 -70.470582 10.079882 -2.822361 20.986488 -8.829350 -21.551648 8.328852 0.000000 0.000000 0.000000 -13.174819 0.397889 71.069412 2.584036 0.193946 -18.686375 13.544443 12.843464 20.117227 -7.791644 5.886597 -19.488681 0.000000 0.000000 0.000000 19.315071 -39.952561 11.662166 24.853780 -23.940475 -7.311919 24.077448 -4.846901 -1.344292 0.000000 0.000000 0.000000 -30.280392 43.313990 7.306746 -24.865462 19.498582 -2.689067 -6.793419 4.180259 0.055999 0.000000 0.000000 0.000000 
0.000593 0.855022 -0.002148 -0.159334 16.093248 49.360880 18.255087 -2.119270 -71.232960 -13.917916 2.525335 16.244591 8.382471 23.604935 5.794050 0.000000 0.000000 0.000000 -15.376353 -9.636598 -71.813793 10.831695 -2.980354 19.699989 -9.851094 -23.288086 9.747408 0.000000 0.000000 0.000000 -12.623135 -0.463903 67.772145 1.546708 0.242242 -14.267619 14.619968 12.151572 18.136895 -11.849461 7.537483 -16.004205 0.000000 0.000000 0.000000 14.843277 -42.926613 13.597701 27.669822 -21.444137 -6.812967 24.482798 -4.143901 -1.079820 0.000000 0.000000 0.000000 -29.415207 44.849081 8.211030 -27.035569 17.297975 -2.320906 -8.868232 3.132132 0.105919 0.000000 0.000000 0.000000 
0.000656 0.854459 -0.003549 0.059683 15.251802 49.255651 17.382884 -2.221773 -71.671566 -13.393331 2.512036 17.420422 8.537553 23.780141 5.823973 0.000000 0.000000 0.000000 -16.752805 -10.440065 -72.931041 11.869355 -3.539051 22.006623 -8.709955 -21.184591 9.609694 0.000000 0.000000 0.000000 -12.092504 -0.635881 70.029294 -0.591861 0.925085 -17.663800 16.087785 10.379239 19.017891 -9.383197 6.431822 -17.002769 0.000000 0.000000 0.000000 18.585827 -40.828669 12.141544 24.612385 -23.822284 -6.868441 26.051393 -2.974772 -0.995383 0.000000 0.000000 0.000000 -32.542707 43.636268 6.461710 -25.420967 18.580147 -2.635707 -9.073730 3.019807 0.100396 0.000000 0.000000 0.000000 
-0.000592 0.855882 -0.002857 -0.009726 15.404819 51.377187 17.955556 -1.935071 -75.066639 -12.839251 2.593505 19.455822 8.449970 23.829949 8.216597 0.000000 0.000000 0.000000 -16.513937 -10.606072 -74.425235 11.062223 -3.124197 20.839676 -8.245837 -20.256152 10.803136 0.000000 0.000000 0.000000 -12.595009 -0.236890 70.200821 -0.772364 1.011356 -18.240619 16.885432 11.824853 19.288529 -9.179935 6.288248 -15.212825 0.000000 0.000000 0.000000 20.415802 -40.084329 11.720556 24.915983 -21.628821 -6.295889 29.270220 -2.428040 -1.189545 0.000000 0.000000 0.000000 -32.976707 43.837541 6.545593 -27.523742 16.421454 -2.023862 -8.035805 3.010786 0.113283 0.000000 0.000000 0.000000 
-0.003068 0.855782 -0.000433 0.736837 15.549000 51.746841 17.087454 -2.582903 -74.534850 -12.049589 2.271106 18.353682 8.183116 23.438513 7.734689 0.000000 0.000000 0.000000 -17.592765 -11.656421 -74.686140 11.297867 -3.301688 21.573856 -7.372197 -18.466867 11.106765 0.000000 0.000000 0.000000 -12.125542 -0.826746 70.651464 -2.007135 1.314099 -19.625132 16.901753 9.842082 20.309556 -9.113689 6.267340 -18.504323 0.000000 0.000000 0.000000 23.848467 -38.146341 10.447426 23.244686 -21.246363 -5.574517 29.682467 -1.698230 -1.118996 0.000000 0.000000 0.000000 -34.980777 43.033249 5.470225 -26.938234 17.096196 -2.275387 -9.327734 2.553245 0.133813 0.000000 0.000000 0.000000 
